<svg width="124" height="58" viewBox="0 0 124 58" fill="none" xmlns="http://www.w3.org/2000/svg">
<path d="M3.39258 32.2246H10.2305V34H0.703125V32.5586L7.32129 22.9961H0.74707V21.2031H10.0195V22.6094L3.39258 32.2246ZM14.2119 34H12.0762V24.4902H14.2119V34ZM11.9443 22.0205C11.9443 21.6924 12.0469 21.4199 12.252 21.2031C12.4629 20.9863 12.7617 20.8779 13.1484 20.8779C13.5352 20.8779 13.834 20.9863 14.0449 21.2031C14.2559 21.4199 14.3613 21.6924 14.3613 22.0205C14.3613 22.3428 14.2559 22.6123 14.0449 22.8291C13.834 23.04 13.5352 23.1455 13.1484 23.1455C12.7617 23.1455 12.4629 23.04 12.252 22.8291C12.0469 22.6123 11.9443 22.3428 11.9443 22.0205ZM21.5244 26.4414C21.2432 26.3945 20.9531 26.3711 20.6543 26.3711C19.6758 26.3711 19.0166 26.7461 18.6768 27.4961V34H16.541V24.4902H18.5801L18.6328 25.5537C19.1484 24.7275 19.8633 24.3145 20.7773 24.3145C21.082 24.3145 21.334 24.3555 21.5332 24.4375L21.5244 26.4414ZM22.1572 29.1572C22.1572 28.2256 22.3418 27.3877 22.7109 26.6436C23.0801 25.8936 23.5986 25.3193 24.2666 24.9209C24.9346 24.5166 25.7021 24.3145 26.5693 24.3145C27.8525 24.3145 28.8926 24.7275 29.6895 25.5537C30.4922 26.3799 30.9258 27.4756 30.9902 28.8408L30.999 29.3418C30.999 30.2793 30.8174 31.1172 30.4541 31.8555C30.0967 32.5938 29.5811 33.165 28.9072 33.5693C28.2393 33.9736 27.4658 34.1758 26.5869 34.1758C25.2451 34.1758 24.1699 33.7305 23.3613 32.8398C22.5586 31.9434 22.1572 30.751 22.1572 29.2627V29.1572ZM24.293 29.3418C24.293 30.3203 24.4951 31.0879 24.8994 31.6445C25.3037 32.1953 25.8662 32.4707 26.5869 32.4707C27.3076 32.4707 27.8672 32.1895 28.2656 31.627C28.6699 31.0645 28.8721 30.2412 28.8721 29.1572C28.8721 28.1963 28.6641 27.4346 28.248 26.8721C27.8379 26.3096 27.2783 26.0283 26.5693 26.0283C25.8721 26.0283 25.3184 26.3066 24.9082 26.8633C24.498 27.4141 24.293 28.2402 24.293 29.3418ZM35.9912 22.126V24.4902H37.5557V26.5469H35.9912V30.8975C35.9912 31.2549 36.0557 31.5039 36.1846 31.6445C36.3135 31.7852 36.5684 31.8555 36.9492 31.8555C37.2422 31.8555 37.4883 31.8379 37.6875 31.8027V33.9209C37.1543 34.0908 36.5977 34.1758 36.0176 34.1758C34.998 34.1758 34.2451 33.9355 33.7588 33.4551C33.2725 32.9746 33.0293 32.2451 33.0293 31.2666V26.5469H31.8164V24.4902H33.0293V22.126H35.9912ZM43.3301 34.1758C41.8711 34.1758 40.6904 33.7422 39.7881 32.875C38.8857 32.002 38.4346 30.8682 38.4346 29.4736V29.2275C38.4346 28.2549 38.6133 27.3965 38.9707 26.6523C39.334 25.9082 39.8613 25.334 40.5527 24.9297C41.2441 24.5195 42.0645 24.3145 43.0137 24.3145C44.3496 24.3145 45.4043 24.7305 46.1777 25.5625C46.9512 26.3887 47.3379 27.543 47.3379 29.0254V30.1768H41.4492C41.5547 30.71 41.7861 31.1289 42.1436 31.4336C42.501 31.7383 42.9639 31.8906 43.5322 31.8906C44.4697 31.8906 45.2021 31.5625 45.7295 30.9062L47.083 32.5059C46.7139 33.0156 46.1895 33.4229 45.5098 33.7275C44.8359 34.0264 44.1094 34.1758 43.3301 34.1758ZM42.9961 26.5996C42.1289 26.5996 41.6133 27.1738 41.4492 28.3223H44.4375V28.0938C44.4492 27.6191 44.3291 27.2529 44.0771 26.9951C43.8252 26.7314 43.4648 26.5996 42.9961 26.5996ZM52.5586 31.8906C52.9746 31.8906 53.2969 31.7793 53.5254 31.5566C53.7539 31.3281 53.8652 31.0117 53.8594 30.6074H56.6367C56.6367 31.6504 56.2617 32.5059 55.5117 33.1738C54.7676 33.8418 53.8066 34.1758 52.6289 34.1758C51.2461 34.1758 50.1562 33.7422 49.3594 32.875C48.5625 32.0078 48.1641 30.8066 48.1641 29.2715V29.1484C48.1641 28.1875 48.3398 27.3408 48.6914 26.6084C49.0488 25.8701 49.5615 25.3047 50.2295 24.9121C50.8975 24.5137 51.6885 24.3145 52.6025 24.3145C53.8389 24.3145 54.8203 24.6572 55.5469 25.3428C56.2734 26.0283 56.6367 26.957 56.6367 28.1289H53.8594C53.8594 27.6367 53.7393 27.2588 53.499 26.9951C53.2588 26.7314 52.9365 26.5996 52.5322 26.5996C51.7646 26.5996 51.3164 27.0889 51.1875 28.0674C51.1465 28.3779 51.126 28.8057 51.126 29.3506C51.126 30.3057 51.2402 30.9678 51.4688 31.3369C51.6973 31.7061 52.0605 31.8906 52.5586 31.8906ZM60.7852 25.5098C61.418 24.7129 62.2266 24.3145 63.2109 24.3145C64.2598 24.3145 65.0508 24.625 65.584 25.2461C66.1172 25.8672 66.3896 26.7842 66.4014 27.9971V34H63.4307V28.0674C63.4307 27.5635 63.3281 27.1943 63.123 26.96C62.918 26.7197 62.5693 26.5996 62.0771 26.5996C61.4678 26.5996 61.0371 26.793 60.7852 27.1797V34H57.8232V20.5H60.7852V25.5098Z" fill="white"/>
<path fill-rule="evenodd" clip-rule="evenodd" d="M58.7573 0.00409171C74.9074 0.00409171 88 12.9871 88 29.002C88 45.017 74.9074 58 58.7573 58C45.8297 58 34.8622 49.6816 31 38.1429C31.6396 38.278 32.3039 38.3516 32.9889 38.3516C35.1262 38.3516 37.0945 37.6478 38.6748 36.4612C41.7241 44.526 49.564 50.2667 58.7614 50.2667C70.6037 50.2667 80.2055 40.7453 80.2055 29.002C80.2055 17.2588 70.6037 7.73743 58.7614 7.73743C49.564 7.73743 41.7241 13.4781 38.6748 21.5388C37.0945 20.3522 35.1262 19.6484 32.9889 19.6484C32.308 19.6484 31.6437 19.722 31 19.8571C34.8622 8.32254 45.8297 0 58.7573 0V0.00409171Z" fill="white"/>
</svg>
